<svg width="29" height="32" viewBox="0 0 29 32" fill="none" xmlns="http://www.w3.org/2000/svg">
<path fill-rule="evenodd" clip-rule="evenodd" d="M9.69435 29.6234C6.92774 28.847 4.03119 28.4553 1.22135 28.0965C0.61615 28.0213 0.0542665 28.4411 0.0110382 29.0324C-0.0754184 29.6242 0.357118 30.1655 0.919086 30.2407C3.64247 30.5861 6.45206 30.9557 9.08898 31.7031C9.65095 31.8652 10.2564 31.5315 10.4293 30.9574C10.6022 30.3838 10.2563 29.7859 9.69435 29.6234Z" fill="#1E84FE"/>
<path fill-rule="evenodd" clip-rule="evenodd" d="M18.0803 18.6162C13.6278 14.0724 8.61329 10.1136 4.24723 5.44796C3.85818 5.01222 3.16652 4.98887 2.73424 5.39565C2.30196 5.80286 2.2589 6.4876 2.69118 6.92334C7.05724 11.6024 12.0717 15.5742 16.5242 20.1313C16.9565 20.5567 17.648 20.5627 18.0803 20.1443C18.4693 19.7263 18.5126 19.0415 18.0803 18.6162Z" fill="#1E84FE"/>
<path fill-rule="evenodd" clip-rule="evenodd" d="M26.4241 1.13939C26.5538 3.74001 26.6832 6.34062 26.8129 8.94167C26.8129 9.53736 27.3319 9.99731 27.9371 9.96834C28.5423 9.93895 28.9743 9.43188 28.9743 8.83576C28.8447 6.23083 28.7152 3.62632 28.5855 1.02181C28.5423 0.426126 28.0235 -0.0307972 27.4183 0.00162401C26.8563 0.0340452 26.3809 0.544141 26.4241 1.13939Z" fill="#1E84FE"/>
</svg>
