<svg width="52" height="52" viewBox="0 0 52 52" fill="none" xmlns="http://www.w3.org/2000/svg">
<path d="M47.3897 35.3204C47.3897 34.0712 46.8346 32.9492 45.9581 32.1882C46.8346 31.4271 47.3897 30.3053 47.3897 29.056C47.3897 26.7689 45.5289 24.9082 43.2417 24.9082H30.907L32.3309 19.5338C33.5068 15.0983 31.4347 10.9547 28.8404 9.65913C27.3172 8.89894 26.0946 8.77767 25.1026 9.28812C23.7488 9.98464 23.3193 11.6109 23.0567 13.2648C21.9693 20.1321 20.289 24.5493 14.5344 28.2199C14.522 28.2278 14.5097 28.236 14.4977 28.2445L12.8626 29.3903C12.4032 29.7121 12.2918 30.3455 12.6136 30.8048C12.9356 31.2642 13.5689 31.3757 14.0282 31.0538L15.6454 29.9205C18.6987 27.9696 20.8075 25.7774 22.2815 23.0225C23.5623 20.6286 24.3942 17.8054 25.0628 13.5831C25.1568 12.9905 25.4068 11.4161 26.0318 11.0945C26.3922 10.909 27.0675 11.0446 27.9329 11.4767C29.574 12.2961 31.333 15.3712 30.3674 19.0136L28.6055 25.6639C28.5246 25.9685 28.59 26.2935 28.7823 26.5434C28.9745 26.7932 29.2719 26.9396 29.5872 26.9396H43.2416C44.4088 26.9396 45.3583 27.8891 45.3583 29.0561C45.3583 30.2232 44.4088 31.1727 43.2416 31.1727H38.9723C38.4114 31.1727 37.9566 31.6274 37.9566 32.1883C37.9566 32.7493 38.4114 33.204 38.9723 33.204H43.2416C44.4088 33.204 45.3583 34.1535 45.3583 35.3205C45.3583 36.4876 44.4088 37.4371 43.2416 37.4371H38.9723C38.4114 37.4371 37.9566 37.8918 37.9566 38.4527C37.9566 39.0136 38.4114 39.4683 38.9723 39.4683H43.2416C44.4088 39.4683 45.3583 40.4178 45.3583 41.5849C45.3583 42.7536 44.4088 43.7044 43.2416 43.7044H40.8579H38.9723C38.4114 43.7044 37.9566 44.1591 37.9566 44.72C37.9566 45.281 38.4114 45.7357 38.9723 45.7357H40.8579C42.0249 45.7357 42.9745 46.6852 42.9745 47.8522C42.9745 49.0193 42.0251 49.9688 40.8581 49.9688H26.6911C23.6219 49.9688 18.0509 48.3935 15.7395 46.4402L14.6657 45.5247C14.2389 45.1608 13.5979 45.2118 13.2339 45.6387C12.87 46.0655 12.921 46.7066 13.3478 47.0705L14.425 47.9888C17.1416 50.2845 23.1414 52 26.691 52H40.858C43.1452 52 45.0059 50.1393 45.0059 47.8522C45.0059 47.0183 44.7584 46.2408 44.3331 45.5898C46.0925 45.1092 47.3897 43.4957 47.3897 41.5849C47.3897 40.3357 46.8346 39.2137 45.9581 38.4527C46.8346 37.6916 47.3897 36.5696 47.3897 35.3204Z" fill="#020288"/>
<path d="M16.0016 5.00847L17.8066 6.6091C18 6.78053 18.2405 6.86483 18.4801 6.86483C18.7605 6.86483 19.0397 6.74936 19.2404 6.52307C19.6126 6.10342 19.574 5.46144 19.1544 5.08932L17.3493 3.48869C16.9296 3.11646 16.2878 3.15506 15.9155 3.57471C15.5434 3.99447 15.5819 4.63635 16.0016 5.00847Z" fill="#020288"/>
<path d="M36.8855 6.86489C37.125 6.86489 37.3656 6.7806 37.559 6.60916L39.364 5.00853C39.7837 4.63641 39.8223 3.99453 39.4502 3.57478C39.0779 3.15512 38.4364 3.11653 38.0164 3.48875L36.2114 5.08938C35.7917 5.4615 35.7531 6.10338 36.1252 6.52313C36.326 6.74942 36.6051 6.86489 36.8855 6.86489Z" fill="#020288"/>
<path d="M15.1475 14.1505C15.1619 14.1511 15.1764 14.1514 15.1907 14.1514C15.7321 14.1514 16.1818 13.7241 16.2047 13.1781C16.228 12.6177 15.7927 12.1444 15.2323 12.121L12.8198 12.0202C12.2595 11.9972 11.786 12.4321 11.7626 12.9926C11.7393 13.553 12.1746 14.0263 12.735 14.0497L15.1475 14.1505Z" fill="#020288"/>
<path d="M39.1581 13.1782C39.181 13.7242 39.6307 14.1514 40.1721 14.1514C40.1864 14.1514 40.2008 14.1511 40.2152 14.1505L42.6277 14.0498C43.1882 14.0264 43.6235 13.553 43.6001 12.9926C43.5766 12.4322 43.1023 11.9978 42.543 12.0202L40.1305 12.121C39.5701 12.1445 39.1348 12.6177 39.1581 13.1782Z" fill="#020288"/>
<path d="M27.6813 4.44377C28.2422 4.44377 28.697 3.98907 28.697 3.42814V1.01562C28.697 0.454695 28.2422 0 27.6813 0C27.1205 0 26.6657 0.454695 26.6657 1.01562V3.42814C26.6657 3.98907 27.1205 4.44377 27.6813 4.44377Z" fill="#020288"/>
<path fill-rule="evenodd" clip-rule="evenodd" d="M4.61011 27.9275V48.3617C4.61011 49.3521 5.422 50.164 6.41233 50.164H13.2785C14.2688 50.164 15.0807 49.3521 15.0807 48.3617V47.2131V29.0761V27.9275C15.0807 26.9371 14.2688 26.1252 13.2785 26.1252H6.41223C5.4219 26.1252 4.61011 26.9371 4.61011 27.9275Z" fill="#FFBDBC"/>
<path d="M10.0828 32.7777C9.52186 32.7777 9.06717 32.323 9.06717 31.7621C9.06717 31.2011 9.52186 30.7436 10.0828 30.7436C10.6437 30.7436 11.0984 31.1954 11.0984 31.7564V31.7622C11.0984 32.323 10.6437 32.7777 10.0828 32.7777Z" fill="#020288"/>
</svg>
