<svg width="52" height="52" viewBox="0 0 52 52" fill="none" xmlns="http://www.w3.org/2000/svg">
<g clip-path="url(#clip0_221_5696)">
<path d="M26 39.2004C28.4405 39.2004 30.419 37.2219 30.419 34.7814C30.419 32.3409 28.4405 30.3624 26 30.3624C23.5595 30.3624 21.581 32.3409 21.581 34.7814C21.581 37.2219 23.5595 39.2004 26 39.2004Z" fill="#FFBDBC"/>
<path d="M26 39.2004C21.5251 39.2004 17.8985 42.8269 17.8985 47.3019V48.2207C22.6187 51.8704 29.2886 51.942 34.1014 48.2207V47.3019C34.1015 42.829 30.4752 39.2004 26 39.2004Z" fill="#FFBDBC"/>
<path d="M25.8979 5.09467L27.2215 7.7878L30.1809 8.21782L28.0395 10.3053L28.5449 13.2529L25.8979 11.8612L23.2508 13.2529L23.7564 10.3053L21.6148 8.21782L24.5744 7.7878L25.8979 5.09467Z" fill="#FFBDBC"/>
<path d="M38.7469 5.09467L40.0705 7.7878L43.03 8.21782L40.8885 10.3053L41.3941 13.2529L38.7469 11.8612L36.0999 13.2529L36.6054 10.3053L34.4639 8.21782L37.4234 7.7878L38.7469 5.09467Z" fill="#FFBDBC"/>
<path d="M13.2529 5.09467L14.5764 7.7878L17.5359 8.21782L15.3943 10.3053L15.8999 13.2529L13.2529 11.8612L10.6058 13.2529L11.1113 10.3053L8.9698 8.21782L11.9293 7.7878L13.2529 5.09467Z" fill="#FFBDBC"/>
<path d="M47.9251 0H4.07499C1.82802 0 0 1.82802 0 4.07489V14.2726C0 16.5195 1.82802 18.3476 4.07499 18.3476H21.1036L25.4367 21.2362C25.7776 21.4636 26.2222 21.4637 26.5635 21.2362L30.8965 18.3476H47.9252C50.1721 18.3476 52.0001 16.5195 52.0001 14.2726V4.07489C52 1.82802 50.172 0 47.9251 0ZM49.9688 14.2726C49.9688 15.3995 49.052 16.3163 47.9251 16.3163H30.589C30.3884 16.3163 30.1925 16.3756 30.0256 16.4869L26 19.1706L21.9744 16.4869C21.8075 16.3756 21.6115 16.3163 21.411 16.3163H4.07499C2.94805 16.3163 2.03125 15.3995 2.03125 14.2726V4.07489C2.03125 2.94795 2.94805 2.03125 4.07499 2.03125H47.9251C49.052 2.03125 49.9688 2.94795 49.9688 4.07489V14.2726Z" fill="#020288"/>
<path d="M26.0002 23.4547C18.1302 23.4547 11.7275 29.8574 11.7275 37.7274C11.7275 45.5973 18.1302 52 26.0002 52C33.8701 52 40.2728 45.5973 40.2728 37.7274C40.2728 29.8573 33.8701 23.4547 26.0002 23.4547ZM26.0002 49.9687C19.2503 49.9687 13.7588 44.4773 13.7588 37.7274C13.7588 30.9774 19.2503 25.486 26.0002 25.486C32.7502 25.486 38.2416 30.9774 38.2416 37.7274C38.2416 44.4773 32.7502 49.9687 26.0002 49.9687Z" fill="#020288"/>
</g>
<defs>
<clipPath id="clip0_221_5696">
<rect width="52" height="52" fill="white"/>
</clipPath>
</defs>
</svg>
