<svg width="52" height="52" viewBox="0 0 52 52" fill="none" xmlns="http://www.w3.org/2000/svg">
<g clip-path="url(#clip0_245_7737)">
<path d="M1.01562 44.6487C1.01562 46.8321 2.78555 48.602 4.96895 48.602H11.5948L1.01562 38.0228V44.6487Z" fill="#FFBDBC"/>
<path d="M40.4052 48.602H47.031C49.2143 48.602 50.9844 46.8321 50.9844 44.6487V38.0228L40.4052 48.602Z" fill="#FFBDBC"/>
<path d="M25.9979 42.2657C32.2047 42.2657 37.2364 37.2341 37.2364 31.0272C37.2364 24.8204 32.2047 19.7887 25.9979 19.7887C19.791 19.7887 14.7594 24.8204 14.7594 31.0272C14.7594 37.2341 19.791 42.2657 25.9979 42.2657Z" fill="#FFBDBC"/>
<path d="M47.0311 4.21717H46.8596V3.39807C46.8596 2.83714 46.4048 2.38245 45.844 2.38245H41.708C41.1471 2.38245 40.6923 2.83714 40.6923 3.39807V4.21717H36.8971V3.39807C36.8971 2.83714 36.4424 2.38245 35.8815 2.38245H31.7455C31.1847 2.38245 30.7299 2.83714 30.7299 3.39807V4.21717H21.27V3.39807C21.27 2.83714 20.8153 2.38245 20.2544 2.38245H16.1185C15.5575 2.38245 15.1029 2.83714 15.1029 3.39807V4.21717H11.3076V3.39807C11.3076 2.83714 10.8529 2.38245 10.2919 2.38245H6.15611C5.59518 2.38245 5.14048 2.83714 5.14048 3.39807V4.21717H4.96895C2.22909 4.21717 0 6.44626 0 9.18611V44.6487C0 47.3885 2.22909 49.6175 4.96895 49.6175H47.0311C49.771 49.6175 52 47.3885 52 44.6487V9.18611C52 6.44626 49.771 4.21717 47.0311 4.21717ZM42.7236 4.4137H44.8284V8.53022H42.7236V4.4137ZM32.7611 4.4137H34.8659V8.53022H32.7611V4.4137ZM17.1342 4.4137H19.2389V8.53022H17.1342V4.4137ZM7.17173 4.4137H9.27641V8.53022H7.17173V4.4137ZM2.03125 9.18611C2.03125 7.5663 3.34912 6.24842 4.96895 6.24842H5.14048V8.53012H5.00439C4.44346 8.53012 3.98877 8.98482 3.98877 9.54575C3.98877 10.1067 4.44346 10.5614 5.00439 10.5614H11.4439C12.0048 10.5614 12.4595 10.1067 12.4595 9.54575C12.4595 8.98482 12.0048 8.53012 11.4439 8.53012H11.3077V6.24842H15.103V8.53012H14.9669C14.4059 8.53012 13.9512 8.98482 13.9512 9.54575C13.9512 10.1067 14.4059 10.5614 14.9669 10.5614H21.4063C21.9673 10.5614 22.422 10.1067 22.422 9.54575C22.422 8.98482 21.9673 8.53012 21.4063 8.53012H21.2702V6.24842H30.7301V8.53012H30.5939C30.033 8.53012 29.5782 8.98482 29.5782 9.54575C29.5782 10.1067 30.033 10.5614 30.5939 10.5614H37.0333C37.5942 10.5614 38.049 10.1067 38.049 9.54575C38.049 8.98482 37.5942 8.53012 37.0333 8.53012H36.8972V6.24842H40.6924V8.53012H40.5562C39.9954 8.53012 39.5406 8.98482 39.5406 9.54575C39.5406 10.1067 39.9954 10.5614 40.5562 10.5614H46.9957C47.5565 10.5614 48.0113 10.1067 48.0113 9.54575C48.0113 8.98482 47.5565 8.53012 46.9957 8.53012H46.8596V6.24842H47.0311C48.6509 6.24842 49.9688 7.5663 49.9688 9.18611V12.8432H2.03125V9.18611ZM49.9688 44.6487C49.9688 46.2685 48.6509 47.5863 47.0311 47.5863H4.96895C3.34912 47.5863 2.03125 46.2685 2.03125 44.6487V14.8744H49.9688V44.6487Z" fill="#020288"/>
<path d="M23.0446 34.1835C23.243 34.3818 23.5029 34.481 23.7628 34.481C24.0227 34.481 24.2827 34.3818 24.4809 34.1835L25.9978 32.6666L27.5146 34.1835C27.713 34.3818 27.9729 34.481 28.2328 34.481C28.4926 34.481 28.7525 34.3818 28.9509 34.1835C29.3475 33.7869 29.3475 33.1438 28.9509 32.7471L27.4341 31.2302L28.9509 29.7134C29.3475 29.3168 29.3475 28.6737 28.9509 28.277C28.5542 27.8804 27.9113 27.8804 27.5145 28.277L25.9977 29.7938L24.4808 28.277C24.0842 27.8804 23.4411 27.8804 23.0444 28.277C22.6478 28.6736 22.6478 29.3167 23.0444 29.7134L24.5613 31.2302L23.0444 32.7471C22.6481 33.1438 22.6481 33.7869 23.0446 34.1835Z" fill="#020288"/>
</g>
<defs>
<clipPath id="clip0_245_7737">
<rect width="52" height="52" fill="white"/>
</clipPath>
</defs>
</svg>
