<svg width="52" height="52" viewBox="0 0 52 52" fill="none" xmlns="http://www.w3.org/2000/svg">
<path d="M33.4047 16.3079C30.9239 16.3079 28.7451 14.9912 27.5323 13.0209C26.3193 14.9912 24.1403 16.3079 21.659 16.3079H17.3546L16.3179 16.2595V15.2605L16.3196 15.2299C16.4864 12.3752 17.9152 9.74939 20.1898 8.04873C19.9824 7.42889 19.8777 6.78123 19.8777 6.11396C19.8776 2.7428 22.6241 0 25.9998 0C29.3756 0 32.122 2.7428 32.122 6.11406C32.122 6.78133 32.0174 7.42889 31.8099 8.04883C34.0845 9.74949 35.5134 12.3753 35.6802 15.23L35.6819 15.2596V16.2586L34.6451 16.3079H33.4047Z" fill="#FFBDBC"/>
<path d="M37.7323 36.532C41.1885 37.9863 43.9256 41.1714 43.9256 44.8663V50.9844H33.6606C33.6606 49.2926 33.6606 37.5079 33.6606 35.688C33.7675 35.6996 35.5241 35.5999 37.7323 36.532Z" fill="#FFBDBC"/>
<path d="M18.3391 50.9844H8.07422V44.8662C8.07422 41.1714 10.8113 37.9864 14.2675 36.532C15.5522 35.9897 16.9365 35.6879 18.3167 35.6879H18.3391V50.9844Z" fill="#FFBDBC"/>
<path d="M33.5811 39.8805C28.4797 43.8129 23.5202 43.8129 18.4189 39.8805C17.9745 39.5381 17.337 39.6206 16.9945 40.0649C16.6521 40.5091 16.7345 41.1468 17.1788 41.4893C22.9281 45.9213 28.9095 46.0464 34.8213 41.4893C35.2655 41.1468 35.348 40.5091 35.0055 40.0649C34.663 39.6204 34.0252 39.5383 33.5811 39.8805Z" fill="#020288"/>
<path d="M22.437 21.4652C22.9978 21.4652 23.4526 21.0105 23.4526 20.4496V19.4258C23.4526 18.865 22.9978 18.4102 22.437 18.4102C21.8762 18.4102 21.4214 18.865 21.4214 19.4258V20.4496C21.4214 21.0104 21.8762 21.4652 22.437 21.4652Z" fill="#020288"/>
<path d="M29.6075 21.4652C30.1683 21.4652 30.6231 21.0105 30.6231 20.4496V19.4258C30.6231 18.865 30.1683 18.4102 29.6075 18.4102C29.0467 18.4102 28.5919 18.865 28.5919 19.4258V20.4496C28.5919 21.0104 29.0466 21.4652 29.6075 21.4652Z" fill="#020288"/>
<path d="M33.6832 34.6724H31.4332L30.7396 31.3931C31.9968 30.6915 33.0763 29.7222 33.9102 28.5452H33.9799C37.1798 28.5452 39.7831 25.945 39.7831 22.7491C39.7831 21.8789 39.7831 16.6288 39.7831 15.2924C39.7831 14.7315 39.3284 14.2767 38.7675 14.2767H34.6816C34.1207 14.2767 33.6659 14.7315 33.6659 15.2924V22.941C33.6659 24.1941 33.3618 25.418 32.7819 26.514H26C25.4391 26.514 24.9844 26.9688 24.9844 27.5296C24.9844 28.0905 25.4391 28.5453 26 28.5453H31.2264C28.228 31.3363 23.5086 31.2815 20.5598 28.3496C19.1245 26.9208 18.3341 24.9999 18.3341 22.941V15.2924C18.3341 14.7315 17.8794 14.2767 17.3184 14.2767H13.2326C12.6717 14.2767 12.217 14.7315 12.217 15.2924V21.4115C12.217 21.9724 12.6717 22.4271 13.2326 22.4271H16.3028V22.941C16.3028 26.5549 18.2359 29.7107 21.2598 31.3962L20.5669 34.6725H18.3168C12.6838 34.6725 7.05859 39.2113 7.05859 44.8664V50.9844C7.05859 51.5452 7.51339 52 8.07422 52H43.9258C44.4866 52 44.9414 51.5452 44.9414 50.9844V44.8663C44.9414 39.2111 39.3162 34.6724 33.6832 34.6724ZM35.0779 26.3507C35.8397 24.3249 35.6752 22.722 35.6973 22.427H37.7518V22.749C37.7518 24.4439 36.6237 25.8802 35.0779 26.3507ZM37.7518 20.3958H35.6972V16.3079H37.7517V20.3958H37.7518ZM14.2482 20.3958V16.3079H16.3028V20.3958H14.2482ZM28.8353 32.2056L29.4844 35.2744L26 37.9725L22.5156 35.2744L23.1645 32.2065C24.9715 32.7559 26.9704 32.7741 28.8353 32.2056ZM42.9102 49.9688H9.08984V44.8663C9.08984 41.8436 11.3289 38.8705 14.6625 37.4677C15.8466 36.9678 17.1103 36.7037 18.3167 36.7037H21.0439L25.3781 40.06C25.7445 40.3436 26.2557 40.3435 26.6219 40.06L30.9562 36.7037H33.6833C34.8898 36.7037 36.1534 36.9679 37.3385 37.4681C40.6712 38.8705 42.9102 41.8436 42.9102 44.8663V49.9688Z" fill="#020288"/>
</svg>
