<svg width="20" height="20" viewBox="0 0 20 20" fill="none" xmlns="http://www.w3.org/2000/svg">
<mask id="path-1-inside-1_861_2713" fill="white">
<path d="M6.66699 4.79169C6.32533 4.79169 6.04199 4.50835 6.04199 4.16669V1.66669C6.04199 1.32502 6.32533 1.04169 6.66699 1.04169C7.00866 1.04169 7.29199 1.32502 7.29199 1.66669V4.16669C7.29199 4.50835 7.00866 4.79169 6.66699 4.79169Z"/>
</mask>
<path d="M6.66699 4.79169C6.32533 4.79169 6.04199 4.50835 6.04199 4.16669V1.66669C6.04199 1.32502 6.32533 1.04169 6.66699 1.04169C7.00866 1.04169 7.29199 1.32502 7.29199 1.66669V4.16669C7.29199 4.50835 7.00866 4.79169 6.66699 4.79169Z" fill="#667085"/>
<path d="M6.66699 3.29169C7.15375 3.29169 7.54199 3.67993 7.54199 4.16669H4.54199C4.54199 5.33678 5.4969 6.29169 6.66699 6.29169V3.29169ZM7.54199 4.16669V1.66669H4.54199V4.16669H7.54199ZM7.54199 1.66669C7.54199 2.15345 7.15375 2.54169 6.66699 2.54169V-0.458313C5.4969 -0.458313 4.54199 0.496593 4.54199 1.66669H7.54199ZM6.66699 2.54169C6.18023 2.54169 5.79199 2.15345 5.79199 1.66669H8.79199C8.79199 0.496593 7.83709 -0.458313 6.66699 -0.458313V2.54169ZM5.79199 1.66669V4.16669H8.79199V1.66669H5.79199ZM5.79199 4.16669C5.79199 3.67993 6.18023 3.29169 6.66699 3.29169V6.29169C7.83709 6.29169 8.79199 5.33678 8.79199 4.16669H5.79199Z" fill="#667085" mask="url(#path-1-inside-1_861_2713)"/>
<mask id="path-3-inside-2_861_2713" fill="white">
<path d="M13.333 4.79169C12.9913 4.79169 12.708 4.50835 12.708 4.16669V1.66669C12.708 1.32502 12.9913 1.04169 13.333 1.04169C13.6747 1.04169 13.958 1.32502 13.958 1.66669V4.16669C13.958 4.50835 13.6747 4.79169 13.333 4.79169Z"/>
</mask>
<path d="M13.333 4.79169C12.9913 4.79169 12.708 4.50835 12.708 4.16669V1.66669C12.708 1.32502 12.9913 1.04169 13.333 1.04169C13.6747 1.04169 13.958 1.32502 13.958 1.66669V4.16669C13.958 4.50835 13.6747 4.79169 13.333 4.79169Z" fill="#667085"/>
<path d="M13.333 3.29169C13.8198 3.29169 14.208 3.67993 14.208 4.16669H11.208C11.208 5.33678 12.1629 6.29169 13.333 6.29169V3.29169ZM14.208 4.16669V1.66669H11.208V4.16669H14.208ZM14.208 1.66669C14.208 2.15345 13.8198 2.54169 13.333 2.54169V-0.458313C12.1629 -0.458313 11.208 0.496593 11.208 1.66669H14.208ZM13.333 2.54169C12.8462 2.54169 12.458 2.15345 12.458 1.66669H15.458C15.458 0.496593 14.5031 -0.458313 13.333 -0.458313V2.54169ZM12.458 1.66669V4.16669H15.458V1.66669H12.458ZM12.458 4.16669C12.458 3.67993 12.8462 3.29169 13.333 3.29169V6.29169C14.5031 6.29169 15.458 5.33678 15.458 4.16669H12.458Z" fill="#667085" mask="url(#path-3-inside-2_861_2713)"/>
<path d="M7.08333 12.0833C6.975 12.0833 6.86667 12.0583 6.76667 12.0167C6.65833 11.975 6.575 11.9166 6.49167 11.8416C6.34167 11.6833 6.25 11.475 6.25 11.25C6.25 11.1416 6.275 11.0333 6.31667 10.9333C6.35833 10.8333 6.41667 10.7416 6.49167 10.6583C6.575 10.5833 6.65833 10.525 6.76667 10.4833C7.06667 10.3583 7.44167 10.425 7.675 10.6583C7.825 10.8166 7.91667 11.0333 7.91667 11.25C7.91667 11.3 7.90833 11.3583 7.9 11.4167C7.89167 11.4667 7.875 11.5166 7.85 11.5666C7.83333 11.6166 7.80833 11.6666 7.775 11.7166C7.75 11.7583 7.70833 11.8 7.675 11.8416C7.51667 11.9916 7.3 12.0833 7.08333 12.0833Z" fill="#667085"/>
<path d="M10.0003 12.0833C9.89199 12.0833 9.78366 12.0584 9.68366 12.0167C9.57532 11.975 9.49199 11.9167 9.40866 11.8417C9.25866 11.6833 9.16699 11.475 9.16699 11.25C9.16699 11.1417 9.19199 11.0333 9.23366 10.9333C9.27533 10.8333 9.33366 10.7417 9.40866 10.6584C9.49199 10.5834 9.57532 10.525 9.68366 10.4833C9.98366 10.35 10.3587 10.425 10.592 10.6584C10.742 10.8167 10.8337 11.0333 10.8337 11.25C10.8337 11.3 10.8253 11.3584 10.817 11.4167C10.8087 11.4667 10.792 11.5167 10.767 11.5667C10.7503 11.6167 10.7253 11.6667 10.692 11.7167C10.667 11.7583 10.6253 11.8 10.592 11.8417C10.4337 11.9917 10.217 12.0833 10.0003 12.0833Z" fill="#667085"/>
<path d="M12.9163 12.0833C12.808 12.0833 12.6997 12.0584 12.5997 12.0167C12.4913 11.975 12.408 11.9167 12.3247 11.8417C12.2913 11.8 12.258 11.7583 12.2247 11.7167C12.1913 11.6667 12.1663 11.6167 12.1497 11.5667C12.1247 11.5167 12.108 11.4667 12.0997 11.4167C12.0913 11.3584 12.083 11.3 12.083 11.25C12.083 11.0333 12.1747 10.8167 12.3247 10.6584C12.408 10.5834 12.4913 10.525 12.5997 10.4833C12.908 10.35 13.2747 10.425 13.508 10.6584C13.658 10.8167 13.7497 11.0333 13.7497 11.25C13.7497 11.3 13.7413 11.3584 13.733 11.4167C13.7247 11.4667 13.708 11.5167 13.683 11.5667C13.6663 11.6167 13.6413 11.6667 13.608 11.7167C13.583 11.7583 13.5413 11.8 13.508 11.8417C13.3497 11.9917 13.133 12.0833 12.9163 12.0833Z" fill="#667085"/>
<path d="M7.08333 15C6.975 15 6.86667 14.975 6.76667 14.9333C6.66667 14.8917 6.575 14.8333 6.49167 14.7583C6.34167 14.6 6.25 14.3833 6.25 14.1667C6.25 14.0583 6.275 13.95 6.31667 13.85C6.35833 13.7417 6.41667 13.65 6.49167 13.575C6.8 13.2667 7.36667 13.2667 7.675 13.575C7.825 13.7333 7.91667 13.95 7.91667 14.1667C7.91667 14.3833 7.825 14.6 7.675 14.7583C7.51667 14.9083 7.3 15 7.08333 15Z" fill="#667085"/>
<path d="M10.0003 15C9.78366 15 9.56699 14.9083 9.40866 14.7583C9.25866 14.6 9.16699 14.3833 9.16699 14.1667C9.16699 14.0583 9.19199 13.95 9.23366 13.85C9.27533 13.7417 9.33366 13.65 9.40866 13.575C9.71699 13.2667 10.2837 13.2667 10.592 13.575C10.667 13.65 10.7253 13.7417 10.767 13.85C10.8087 13.95 10.8337 14.0583 10.8337 14.1667C10.8337 14.3833 10.742 14.6 10.592 14.7583C10.4337 14.9083 10.217 15 10.0003 15Z" fill="#667085"/>
<path d="M12.9163 15C12.6997 15 12.483 14.9084 12.3247 14.7584C12.2497 14.6834 12.1913 14.5917 12.1497 14.4834C12.108 14.3834 12.083 14.275 12.083 14.1667C12.083 14.0584 12.108 13.95 12.1497 13.85C12.1913 13.7417 12.2497 13.6501 12.3247 13.5751C12.5163 13.3834 12.808 13.2917 13.0747 13.35C13.133 13.3584 13.183 13.375 13.233 13.4C13.283 13.4167 13.333 13.4417 13.383 13.4751C13.4247 13.5001 13.4663 13.5417 13.508 13.5751C13.658 13.7334 13.7497 13.95 13.7497 14.1667C13.7497 14.3834 13.658 14.6 13.508 14.7584C13.3497 14.9084 13.133 15 12.9163 15Z" fill="#667085"/>
<path d="M17.0837 8.19995H2.91699C2.57533 8.19995 2.29199 7.91662 2.29199 7.57495C2.29199 7.23328 2.57533 6.94995 2.91699 6.94995H17.0837C17.4253 6.94995 17.7087 7.23328 17.7087 7.57495C17.7087 7.91662 17.4253 8.19995 17.0837 8.19995Z" fill="#667085"/>
<path d="M13.3333 18.9584H6.66667C3.625 18.9584 1.875 17.2084 1.875 14.1667V7.08335C1.875 4.04169 3.625 2.29169 6.66667 2.29169H13.3333C16.375 2.29169 18.125 4.04169 18.125 7.08335V14.1667C18.125 17.2084 16.375 18.9584 13.3333 18.9584ZM6.66667 3.54169C4.28333 3.54169 3.125 4.70002 3.125 7.08335V14.1667C3.125 16.55 4.28333 17.7084 6.66667 17.7084H13.3333C15.7167 17.7084 16.875 16.55 16.875 14.1667V7.08335C16.875 4.70002 15.7167 3.54169 13.3333 3.54169H6.66667Z" fill="#667085"/>
</svg>
