<svg width="20" height="20" viewBox="0 0 20 20" fill="none" xmlns="http://www.w3.org/2000/svg">
<mask id="path-1-inside-1_861_749" fill="white">
<path d="M18.3337 7.70831H1.66699C1.32533 7.70831 1.04199 7.42498 1.04199 7.08331C1.04199 6.74165 1.32533 6.45831 1.66699 6.45831H18.3337C18.6753 6.45831 18.9587 6.74165 18.9587 7.08331C18.9587 7.42498 18.6753 7.70831 18.3337 7.70831Z"/>
</mask>
<path d="M18.3337 7.70831H1.66699C1.32533 7.70831 1.04199 7.42498 1.04199 7.08331C1.04199 6.74165 1.32533 6.45831 1.66699 6.45831H18.3337C18.6753 6.45831 18.9587 6.74165 18.9587 7.08331C18.9587 7.42498 18.6753 7.70831 18.3337 7.70831Z" fill="#667085"/>
<path d="M18.3337 6.20831H1.66699V9.20831H18.3337V6.20831ZM1.66699 6.20831C2.15375 6.20831 2.54199 6.59655 2.54199 7.08331H-0.458008C-0.458008 8.25341 0.496899 9.20831 1.66699 9.20831V6.20831ZM2.54199 7.08331C2.54199 7.57007 2.15375 7.95831 1.66699 7.95831V4.95831C0.496899 4.95831 -0.458008 5.91322 -0.458008 7.08331H2.54199ZM1.66699 7.95831H18.3337V4.95831H1.66699V7.95831ZM18.3337 7.95831C17.8469 7.95831 17.4587 7.57007 17.4587 7.08331H20.4587C20.4587 5.91322 19.5038 4.95831 18.3337 4.95831V7.95831ZM17.4587 7.08331C17.4587 6.59655 17.8469 6.20831 18.3337 6.20831V9.20831C19.5038 9.20831 20.4587 8.25341 20.4587 7.08331H17.4587Z" fill="#667085" mask="url(#path-1-inside-1_861_749)"/>
<mask id="path-3-inside-2_861_749" fill="white">
<path d="M6.66667 14.375H5C4.65833 14.375 4.375 14.0917 4.375 13.75C4.375 13.4083 4.65833 13.125 5 13.125H6.66667C7.00833 13.125 7.29167 13.4083 7.29167 13.75C7.29167 14.0917 7.00833 14.375 6.66667 14.375Z"/>
</mask>
<path d="M6.66667 14.375H5C4.65833 14.375 4.375 14.0917 4.375 13.75C4.375 13.4083 4.65833 13.125 5 13.125H6.66667C7.00833 13.125 7.29167 13.4083 7.29167 13.75C7.29167 14.0917 7.00833 14.375 6.66667 14.375Z" fill="#667085"/>
<path d="M6.66667 12.875H5V15.875H6.66667V12.875ZM5 12.875C5.48676 12.875 5.875 13.2632 5.875 13.75H2.875C2.875 14.9201 3.82991 15.875 5 15.875V12.875ZM5.875 13.75C5.875 14.2368 5.48676 14.625 5 14.625V11.625C3.82991 11.625 2.875 12.5799 2.875 13.75H5.875ZM5 14.625H6.66667V11.625H5V14.625ZM6.66667 14.625C6.17991 14.625 5.79167 14.2368 5.79167 13.75H8.79167C8.79167 12.5799 7.83676 11.625 6.66667 11.625V14.625ZM5.79167 13.75C5.79167 13.2632 6.17991 12.875 6.66667 12.875V15.875C7.83676 15.875 8.79167 14.9201 8.79167 13.75H5.79167Z" fill="#667085" mask="url(#path-3-inside-2_861_749)"/>
<path d="M12.0833 14.375H8.75C8.40833 14.375 8.125 14.0917 8.125 13.75C8.125 13.4083 8.40833 13.125 8.75 13.125H12.0833C12.425 13.125 12.7083 13.4083 12.7083 13.75C12.7083 14.0917 12.425 14.375 12.0833 14.375Z" fill="#667085"/>
<path d="M14.6337 17.7084H5.36699C2.05033 17.7084 1.04199 16.7084 1.04199 13.425V6.57502C1.04199 3.29169 2.05033 2.29169 5.36699 2.29169H14.6253C17.942 2.29169 18.9503 3.29169 18.9503 6.57502V13.4167C18.9587 16.7084 17.9503 17.7084 14.6337 17.7084ZM5.36699 3.54169C2.75033 3.54169 2.29199 3.99169 2.29199 6.57502V13.4167C2.29199 16 2.75033 16.45 5.36699 16.45H14.6253C17.242 16.45 17.7003 16 17.7003 13.4167V6.57502C17.7003 3.99169 17.242 3.54169 14.6253 3.54169H5.36699Z" fill="#667085"/>
</svg>
