<svg width="20" height="20" viewBox="0 0 20 20" fill="none" xmlns="http://www.w3.org/2000/svg">
<mask id="path-1-inside-1_861_682" fill="white">
<path d="M15 8.95835C14.6583 8.95835 14.375 8.67502 14.375 8.33335V6.66669C14.375 4.04169 13.6333 2.29169 10 2.29169C6.36667 2.29169 5.625 4.04169 5.625 6.66669V8.33335C5.625 8.67502 5.34167 8.95835 5 8.95835C4.65833 8.95835 4.375 8.67502 4.375 8.33335V6.66669C4.375 4.25002 4.95833 1.04169 10 1.04169C15.0417 1.04169 15.625 4.25002 15.625 6.66669V8.33335C15.625 8.67502 15.3417 8.95835 15 8.95835Z"/>
</mask>
<path d="M15 8.95835C14.6583 8.95835 14.375 8.67502 14.375 8.33335V6.66669C14.375 4.04169 13.6333 2.29169 10 2.29169C6.36667 2.29169 5.625 4.04169 5.625 6.66669V8.33335C5.625 8.67502 5.34167 8.95835 5 8.95835C4.65833 8.95835 4.375 8.67502 4.375 8.33335V6.66669C4.375 4.25002 4.95833 1.04169 10 1.04169C15.0417 1.04169 15.625 4.25002 15.625 6.66669V8.33335C15.625 8.67502 15.3417 8.95835 15 8.95835Z" fill="#667085"/>
<path d="M15 7.45835C15.4868 7.45835 15.875 7.84659 15.875 8.33335H12.875C12.875 9.50345 13.8299 10.4584 15 10.4584V7.45835ZM15.875 8.33335V6.66669H12.875V8.33335H15.875ZM15.875 6.66669C15.875 5.2866 15.6982 3.7266 14.7012 2.53315C13.6528 1.2782 12.023 0.791687 10 0.791687V3.79169C11.6103 3.79169 12.168 4.18017 12.3988 4.45647C12.681 4.79428 12.875 5.42178 12.875 6.66669H15.875ZM10 0.791687C7.97699 0.791687 6.34718 1.2782 5.29882 2.53315C4.30185 3.7266 4.125 5.2866 4.125 6.66669H7.125C7.125 5.42178 7.31898 4.79428 7.60118 4.45647C7.83199 4.18017 8.38968 3.79169 10 3.79169V0.791687ZM4.125 6.66669V8.33335H7.125V6.66669H4.125ZM4.125 8.33335C4.125 7.84659 4.51324 7.45835 5 7.45835V10.4584C6.17009 10.4584 7.125 9.50345 7.125 8.33335H4.125ZM5 7.45835C5.48676 7.45835 5.875 7.84659 5.875 8.33335H2.875C2.875 9.50345 3.82991 10.4584 5 10.4584V7.45835ZM5.875 8.33335V6.66669H2.875V8.33335H5.875ZM5.875 6.66669C5.875 5.52201 6.02768 4.51675 6.52409 3.81046C6.94397 3.21305 7.82013 2.54169 10 2.54169V-0.458313C7.13821 -0.458313 5.20187 0.474491 4.06966 2.08541C3.01398 3.58745 2.875 5.3947 2.875 6.66669H5.875ZM10 2.54169C12.1799 2.54169 13.056 3.21305 13.4759 3.81046C13.9723 4.51675 14.125 5.52201 14.125 6.66669H17.125C17.125 5.3947 16.986 3.58745 15.9303 2.08541C14.7981 0.474491 12.8618 -0.458313 10 -0.458313V2.54169ZM14.125 6.66669V8.33335H17.125V6.66669H14.125ZM14.125 8.33335C14.125 7.84659 14.5132 7.45835 15 7.45835V10.4584C16.1701 10.4584 17.125 9.50345 17.125 8.33335H14.125Z" fill="#667085" mask="url(#path-1-inside-1_861_682)"/>
<mask id="path-3-inside-2_861_682" fill="white">
<path d="M14.167 18.9583H5.83366C2.15866 18.9583 1.04199 17.8416 1.04199 14.1666V12.5C1.04199 8.82498 2.15866 7.70831 5.83366 7.70831H14.167C17.842 7.70831 18.9587 8.82498 18.9587 12.5V14.1666C18.9587 17.8416 17.842 18.9583 14.167 18.9583ZM5.83366 8.95831C2.85033 8.95831 2.29199 9.52498 2.29199 12.5V14.1666C2.29199 17.1416 2.85033 17.7083 5.83366 17.7083H14.167C17.1503 17.7083 17.7087 17.1416 17.7087 14.1666V12.5C17.7087 9.52498 17.1503 8.95831 14.167 8.95831H5.83366Z"/>
</mask>
<path d="M14.167 18.9583H5.83366C2.15866 18.9583 1.04199 17.8416 1.04199 14.1666V12.5C1.04199 8.82498 2.15866 7.70831 5.83366 7.70831H14.167C17.842 7.70831 18.9587 8.82498 18.9587 12.5V14.1666C18.9587 17.8416 17.842 18.9583 14.167 18.9583ZM5.83366 8.95831C2.85033 8.95831 2.29199 9.52498 2.29199 12.5V14.1666C2.29199 17.1416 2.85033 17.7083 5.83366 17.7083H14.167C17.1503 17.7083 17.7087 17.1416 17.7087 14.1666V12.5C17.7087 9.52498 17.1503 8.95831 14.167 8.95831H5.83366Z" fill="#667085"/>
<path d="M14.167 17.4583H5.83366V20.4583H14.167V17.4583ZM5.83366 17.4583C4.04782 17.4583 3.40262 17.1622 3.12036 16.8799C2.8381 16.5977 2.54199 15.9525 2.54199 14.1666H-0.458008C-0.458008 16.0558 -0.195783 17.8064 0.99904 19.0013C2.19386 20.1961 3.9445 20.4583 5.83366 20.4583V17.4583ZM2.54199 14.1666V12.5H-0.458008V14.1666H2.54199ZM2.54199 12.5C2.54199 10.7141 2.8381 10.0689 3.12036 9.78668C3.40262 9.50442 4.04782 9.20831 5.83366 9.20831V6.20831C3.9445 6.20831 2.19386 6.47054 0.99904 7.66536C-0.195783 8.86018 -0.458008 10.6108 -0.458008 12.5H2.54199ZM5.83366 9.20831H14.167V6.20831H5.83366V9.20831ZM14.167 9.20831C15.9528 9.20831 16.598 9.50442 16.8803 9.78668C17.1626 10.0689 17.4587 10.7141 17.4587 12.5H20.4587C20.4587 10.6108 20.1964 8.86018 19.0016 7.66536C17.8068 6.47054 16.0561 6.20831 14.167 6.20831V9.20831ZM17.4587 12.5V14.1666H20.4587V12.5H17.4587ZM17.4587 14.1666C17.4587 15.9525 17.1626 16.5977 16.8803 16.8799C16.598 17.1622 15.9528 17.4583 14.167 17.4583V20.4583C16.0561 20.4583 17.8068 20.1961 19.0016 19.0013C20.1964 17.8064 20.4587 16.0558 20.4587 14.1666H17.4587ZM5.83366 7.45831C5.06135 7.45831 4.34067 7.49295 3.71187 7.62568C3.06635 7.76195 2.41213 8.02307 1.88234 8.55394C1.35271 9.08465 1.09308 9.73901 0.957833 10.3834C0.826063 11.0112 0.791992 11.7304 0.791992 12.5H3.79199C3.79199 11.7821 3.82771 11.3148 3.89386 10.9996C3.95653 10.7011 4.02294 10.6559 4.00581 10.6731C3.98852 10.6904 4.03326 10.6239 4.33149 10.561C4.64644 10.4945 5.1143 10.4583 5.83366 10.4583V7.45831ZM0.791992 12.5V14.1666H3.79199V12.5H0.791992ZM0.791992 14.1666C0.791992 14.9363 0.826063 15.6554 0.957833 16.2832C1.09308 16.9276 1.35271 17.582 1.88234 18.1127C2.41213 18.6436 3.06635 18.9047 3.71187 19.0409C4.34067 19.1737 5.06135 19.2083 5.83366 19.2083V16.2083C5.1143 16.2083 4.64644 16.1721 4.33149 16.1056C4.03326 16.0427 3.98852 15.9762 4.00581 15.9935C4.02294 16.0107 3.95653 15.9656 3.89386 15.667C3.82771 15.3518 3.79199 14.8845 3.79199 14.1666H0.791992ZM5.83366 19.2083H14.167V16.2083H5.83366V19.2083ZM14.167 19.2083C14.9393 19.2083 15.66 19.1737 16.2888 19.0409C16.9343 18.9047 17.5885 18.6436 18.1183 18.1127C18.6479 17.582 18.9076 16.9276 19.0428 16.2832C19.1746 15.6554 19.2087 14.9363 19.2087 14.1666H16.2087C16.2087 14.8845 16.1729 15.3518 16.1068 15.667C16.0441 15.9656 15.9777 16.0107 15.9948 15.9935C16.0121 15.9762 15.9674 16.0427 15.6692 16.1056C15.3542 16.1721 14.8864 16.2083 14.167 16.2083V19.2083ZM19.2087 14.1666V12.5H16.2087V14.1666H19.2087ZM19.2087 12.5C19.2087 11.7304 19.1746 11.0112 19.0428 10.3834C18.9076 9.73901 18.6479 9.08465 18.1183 8.55394C17.5885 8.02307 16.9343 7.76195 16.2888 7.62568C15.66 7.49295 14.9393 7.45831 14.167 7.45831V10.4583C14.8864 10.4583 15.3542 10.4945 15.6692 10.561C15.9674 10.6239 16.0121 10.6904 15.9948 10.6731C15.9777 10.6559 16.0441 10.7011 16.1068 10.9996C16.1729 11.3148 16.2087 11.7821 16.2087 12.5H19.2087ZM14.167 7.45831H5.83366V10.4583H14.167V7.45831Z" fill="#667085" mask="url(#path-3-inside-2_861_682)"/>
<path d="M6.66634 14.1667C6.55801 14.1667 6.44967 14.1417 6.34967 14.1C6.24134 14.0583 6.15801 14 6.07468 13.925C5.92468 13.7667 5.83301 13.5583 5.83301 13.3333C5.83301 13.225 5.858 13.1167 5.89966 13.0167C5.94133 12.9083 5.99968 12.825 6.07468 12.7417C6.15801 12.6667 6.24134 12.6083 6.34967 12.5667C6.64967 12.4333 7.02467 12.5083 7.258 12.7417C7.333 12.825 7.39135 12.9167 7.43302 13.0167C7.47469 13.1167 7.49967 13.225 7.49967 13.3333C7.49967 13.55 7.408 13.7667 7.258 13.925C7.09967 14.075 6.88301 14.1667 6.66634 14.1667Z" fill="#667085"/>
<path d="M10.0003 14.1667C9.78366 14.1667 9.567 14.075 9.40867 13.925C9.25867 13.7667 9.16699 13.5583 9.16699 13.3333C9.16699 13.225 9.18365 13.1167 9.23365 13.0167C9.27531 12.9167 9.33367 12.825 9.40867 12.7417C9.60033 12.55 9.89199 12.4583 10.1587 12.5167C10.217 12.525 10.267 12.5417 10.317 12.5667C10.367 12.5833 10.417 12.6084 10.467 12.6417C10.5087 12.6667 10.5503 12.7083 10.592 12.7417C10.667 12.825 10.7253 12.9167 10.767 13.0167C10.8087 13.1167 10.8337 13.225 10.8337 13.3333C10.8337 13.5583 10.742 13.7667 10.592 13.925C10.5503 13.9583 10.5087 13.9917 10.467 14.025C10.417 14.0583 10.367 14.0834 10.317 14.1C10.267 14.125 10.217 14.1417 10.1587 14.15C10.1087 14.1584 10.0503 14.1667 10.0003 14.1667Z" fill="#667085"/>
<path d="M13.3333 14.1667C13.1083 14.1667 12.9 14.075 12.7417 13.925C12.6667 13.8417 12.6083 13.75 12.5667 13.65C12.525 13.55 12.5 13.4417 12.5 13.3333C12.5 13.1167 12.5917 12.9 12.7417 12.7417C12.7833 12.7083 12.825 12.675 12.8667 12.6417C12.9167 12.6084 12.9667 12.5833 13.0167 12.5667C13.0667 12.5417 13.1167 12.525 13.1667 12.5167C13.4417 12.4583 13.725 12.55 13.925 12.7417C14.075 12.9 14.1667 13.1083 14.1667 13.3333C14.1667 13.4417 14.1417 13.55 14.1 13.65C14.0583 13.7583 14 13.8417 13.925 13.925C13.7667 14.075 13.55 14.1667 13.3333 14.1667Z" fill="#667085"/>
</svg>
