<svg width="71" height="66" viewBox="0 0 71 66" fill="none" xmlns="http://www.w3.org/2000/svg">
<path fill-rule="evenodd" clip-rule="evenodd" d="M6.75754 26.9694C7.54592 21.3217 7.54306 15.5213 7.49874 9.90004C7.48514 8.68987 6.50978 7.69697 5.33534 7.76978C4.14852 7.7577 3.19967 8.75271 3.20173 9.87787C3.24933 15.3255 3.27234 20.9491 2.5063 26.334C2.3375 27.4823 3.15533 28.5839 4.33037 28.7707C5.50456 28.9576 6.58789 28.1179 6.75754 26.9694Z" fill="#FF8C32"/>
<path fill-rule="evenodd" clip-rule="evenodd" d="M30.6411 40.5225C38.388 30.5542 44.8347 19.6368 52.8443 9.80596C53.5973 8.92461 53.4586 7.55827 52.5433 6.81675C51.6272 6.07536 50.2692 6.17342 49.5277 7.13978C41.4917 16.9742 35.0195 27.895 27.2464 37.8669C26.5253 38.8305 26.6979 40.1919 27.6361 40.9303C28.562 41.5838 29.92 41.4861 30.6411 40.5225Z" fill="#FF8C32"/>
<path fill-rule="evenodd" clip-rule="evenodd" d="M67.2352 52.2658C62.1558 53.2149 57.0764 54.1635 51.9961 55.1127C50.8247 55.2716 50.0587 56.415 50.2772 57.5973C50.4965 58.7796 51.6089 59.4938 52.7812 59.3347C57.8691 58.3845 62.9562 57.4349 68.0433 56.4848C69.2032 56.2408 69.9632 55.0986 69.738 53.9172C69.5242 52.8208 68.3943 52.022 67.2352 52.2658Z" fill="#FF8C32"/>
</svg>
