<svg width="48" height="48" viewBox="0 0 48 48" fill="none" xmlns="http://www.w3.org/2000/svg">
<path fill-rule="evenodd" clip-rule="evenodd" d="M21.3645 18.0338C16.9088 14.3712 13.2985 10.0095 10.5854 4.92774C10.0428 3.91557 8.78024 3.52947 7.75763 4.07208C6.74545 4.61469 6.35929 5.87732 6.9019 6.89993C9.88625 12.4617 13.8307 17.2408 18.7141 21.2582C19.6011 21.9886 20.9263 21.8634 21.6567 20.9764C22.3871 20.0791 22.2515 18.7643 21.3645 18.0338Z" fill="#FF8C32"/>
<path fill-rule="evenodd" clip-rule="evenodd" d="M18.9886 3.76952C19.2181 7.98517 19.4269 12.2008 19.6878 16.4165C19.7608 17.5643 20.7521 18.4408 21.8999 18.3678C23.0478 18.2947 23.9243 17.3034 23.8512 16.1556C23.5904 11.9504 23.3816 7.74519 23.152 3.52954C23.0894 2.38485 22.0982 1.5031 20.9503 1.5678C19.8025 1.63249 18.9155 2.61857 18.9886 3.76952Z" fill="#FF8C32"/>
<path fill-rule="evenodd" clip-rule="evenodd" d="M34.48 4.62524C31.8087 8.65307 28.7828 12.3678 25.7358 16.1243C25.0054 17.0217 25.141 18.3366 26.0383 19.0566C26.9357 19.787 28.2506 19.6513 28.9706 18.7539C32.101 14.9035 35.2106 11.0739 37.9654 6.93129C38.6019 5.97129 38.3305 4.67742 37.3705 4.0409C36.4209 3.40437 35.1166 3.66524 34.48 4.62524Z" fill="#FF8C32"/>
<path fill-rule="evenodd" clip-rule="evenodd" d="M44.8276 19.5991C37.5859 19.9226 29.8954 19.933 22.6537 19.4739C21.5059 19.4113 20.5146 20.2774 20.4415 21.4356C20.3685 22.5835 21.245 23.5748 22.3928 23.6478C29.7806 24.1069 37.6276 24.0965 45.0155 23.773C46.1633 23.7208 47.0606 22.74 47.0084 21.5922C46.9563 20.4444 45.9754 19.5469 44.8276 19.5991Z" fill="#FF8C32"/>
<path fill-rule="evenodd" clip-rule="evenodd" d="M18.7087 20.9242C23.1748 26.392 27.7975 31.7555 31.9401 37.4738C32.6183 38.4025 33.9227 38.6111 34.8619 37.9329C35.7906 37.2546 35.9992 35.9502 35.3209 35.0215C31.1262 29.2407 26.4514 23.8146 21.9332 18.2842C21.2027 17.3972 19.8879 17.2616 19.0009 17.992C18.1035 18.7225 17.9783 20.0372 18.7087 20.9242Z" fill="#FF8C32"/>
<path fill-rule="evenodd" clip-rule="evenodd" d="M20.061 22.5108C21.2297 28.2082 21.5532 33.6551 21.6367 39.4256C21.6471 40.5734 22.5967 41.4916 23.7446 41.4812C24.9028 41.4603 25.821 40.5212 25.8002 39.3629C25.7167 33.3212 25.3724 27.6342 24.1515 21.6655C23.9115 20.5386 22.8159 19.8081 21.6785 20.0481C20.5515 20.2777 19.821 21.3838 20.061 22.5108Z" fill="#FF8C32"/>
<path fill-rule="evenodd" clip-rule="evenodd" d="M20.2494 22.0518C16.8686 28.8136 15.126 36.3266 11.5051 42.9423C10.952 43.944 11.3276 45.217 12.3398 45.7701C13.352 46.3231 14.6147 45.9474 15.1677 44.9457C18.8094 38.2883 20.5729 30.7336 23.985 23.9196C24.4964 22.8866 24.0789 21.6344 23.0563 21.1127C22.0233 20.6014 20.7712 21.0188 20.2494 22.0518Z" fill="#FF8C32"/>
<path fill-rule="evenodd" clip-rule="evenodd" d="M22.1101 20.5173C15.3797 21.7069 8.65966 22.2495 1.88748 23.053C0.739658 23.1886 -0.0742546 24.2217 0.0613976 25.3695C0.19705 26.5174 1.23019 27.3313 2.37802 27.1956C9.22323 26.3922 16.0267 25.8287 22.8406 24.6287C23.9676 24.42 24.7293 23.3347 24.531 22.2078C24.3223 21.0704 23.2475 20.3087 22.1101 20.5173Z" fill="#FF8C32"/>
<path fill-rule="evenodd" clip-rule="evenodd" d="M26.7933 17.3458C25.4055 17.2832 24.0907 17.1892 22.7342 16.9909C21.5864 16.824 20.5324 17.617 20.3655 18.7544C20.1985 19.8918 20.9915 20.9562 22.1289 21.1231C23.6315 21.3423 25.082 21.4466 26.6054 21.5092C27.7533 21.5614 28.7341 20.6744 28.7758 19.5162C28.828 18.3683 27.9412 17.3979 26.7933 17.3458Z" fill="#FF8C32"/>
</svg>
