<svg width="416" height="173" viewBox="0 0 416 173" fill="none" xmlns="http://www.w3.org/2000/svg">
<mask id="mask0_366_7178" style="mask-type:alpha" maskUnits="userSpaceOnUse" x="0" y="0" width="416" height="173">
<path d="M0 0H416V161C416 167.627 410.627 173 404 173H12C5.37258 173 0 167.627 0 161V0Z" fill="#FCFFE7"/>
</mask>
<g mask="url(#mask0_366_7178)">
<path d="M439.349 14.25C419.97 10.6122 405.354 47.8777 366.035 47.6115C339.762 47.4341 328.904 30.6646 315.65 37.9698C294.88 49.4452 310.531 96.944 287.484 109.07C278.726 113.684 275.62 107.295 257.868 111.318C233.105 116.937 228.607 131.784 216.359 129.093C203.43 126.254 206.27 109.277 186.743 96.4412C176.359 89.6092 173.459 93.0399 154.139 85.3502C129.228 75.4424 130.826 68.4625 114.879 63.8782C88.7839 56.3955 79.5531 73.6087 57.8369 65.4162C37.8663 57.8743 38.6356 40.7204 22.2745 36.5502C0.795036 31.0787 -22.4892 55.0055 -34.0573 66.8654C-40.7437 73.7565 -96.2767 130.838 -83.6731 178.691C-69.2647 233.377 26.7716 247.869 98.5769 258.724C209.643 275.493 402.928 304.655 464.526 204.659C508.403 133.411 470.947 20.1948 439.349 14.25Z" fill="#1E84FE" fill-opacity="0.1"/>
<path d="M408.009 71.5219C383.489 51.3595 341.419 47.1491 324.432 64.7616C306.588 83.2635 325.112 116.887 305.377 131.742C294.062 140.252 285.82 130.853 263.338 137.939C232.495 147.635 227.561 171.77 213.41 168.865C194.148 164.921 196.807 118.963 169.125 110.394C162.597 108.377 161.09 110.512 150.632 107.547C130.897 101.973 128.179 92.0104 117.012 88.986C94.3229 82.8484 81.0877 117.154 57.0103 114.308C36.8325 111.906 37.0984 86.8216 10.4803 72.1149C-14.897 58.0902 -54.2186 59.3059 -68.0151 77.1258C-88.1633 103.129 -56.8184 168.153 -14.1585 204.267C5.19212 220.664 39.4618 241.716 140.587 245.956C238.433 250.048 394.803 256.6 429.841 178.975C445.056 145.174 437.286 95.5685 408.009 71.5219Z" fill="#1E84FE" fill-opacity="0.1"/>
</g>
</svg>
